<svg class="mw-100" width="200" height="200" viewBox="0 0 44 44" fill="none" xmlns="http://www.w3.org/2000/svg">
					<path d="M6.40822 21.3205L2.93423 23.0278L2.73315 23.1261L0.00132421 24.4692V26.6547L3.76106 24.8072L4.06004 24.6605L5.73089 23.8389L6.23624 23.5912C6.45452 22.6714 6.70984 21.821 6.99295 21.0335L6.40822 21.3205ZM28.0353 10.8158C27.9228 10.555 27.8025 10.2995 27.6755 10.0466C27.6596 10.0152 27.6437 9.98108 27.6252 9.94963C26.2348 7.24647 24.0123 5.03074 21.2884 3.63264C21.2355 3.60513 19.3675 2.75342 16.8778 2.28433C16.1462 2.14675 15.3631 2.04193 14.5548 2H4.44104C1.98967 2 0.00132421 3.96415 0.00132421 6.38691V21.711L1.7952 20.8304L1.87325 20.7924L8.22194 17.6726L8.70348 17.4354C11.3374 13.1468 14.5971 12.0291 14.5971 12.0291V14.5331C15.6766 14.5829 16.6198 15.0153 17.2244 15.6495C17.4811 15.9155 17.6993 16.2968 17.8594 16.6846C17.8898 16.7606 17.9189 16.8353 17.9441 16.9113C17.9957 17.0541 18.0367 17.193 18.0684 17.3254C18.1134 17.5088 18.1888 17.6595 18.2814 17.7931C18.2801 17.7944 18.2814 17.7971 18.2841 17.7984C18.3753 17.9281 18.4825 18.0382 18.5949 18.143C18.9865 18.5099 19.4337 18.8008 19.4337 19.5083C19.4337 19.828 19.2948 20.1045 19.0566 20.3469C18.923 20.4845 18.759 20.609 18.5711 20.7269C18.5301 20.7518 18.4865 20.7767 18.4428 20.8003C18.4415 20.8016 18.4388 20.8029 18.4375 20.8042C18.3542 20.8501 18.2655 20.8959 18.1756 20.9392C18.1571 20.9484 18.1372 20.9562 18.1174 20.9654C18.1134 20.9667 18.1081 20.968 18.1041 20.9706C17.5419 21.2248 16.3473 21.6127 16.1237 21.6821C16.0708 21.6965 16.01 21.7136 15.9451 21.7319C15.7427 21.7896 15.5046 21.8577 15.3631 21.8996C15.3472 21.9023 15.3326 21.9075 15.3181 21.9127C15.2718 21.9272 15.244 21.9363 15.2414 21.9376C15.1315 21.9704 15.0244 22.0097 14.9225 22.0569C14.8961 22.0687 14.8696 22.0818 14.8432 22.0949C14.5627 22.2298 14.3087 22.4093 14.0891 22.6269C13.5771 23.1313 13.2623 23.8258 13.2623 24.5949C13.2623 24.9776 13.343 25.3444 13.4832 25.6786C13.5573 25.8437 13.6446 26.0022 13.7425 26.1542C13.8668 26.3586 14.011 26.5643 14.1698 26.7727C14.1883 26.8002 14.2095 26.8264 14.2293 26.8526C14.7704 27.5536 15.4689 28.2769 16.1766 29.0225C16.4187 29.2767 16.6622 29.5322 16.899 29.7916C17.1093 30.0209 17.3183 30.2529 17.5194 30.4874C17.5789 30.5555 17.6385 30.625 17.6954 30.6944C18.0711 30.6145 18.9468 30.3655 19.0275 30.3406C21.0304 29.7065 22.8481 28.6556 24.3735 27.2916C24.3959 27.2732 24.4171 27.2549 24.4396 27.2352C27.1807 24.7548 28.968 21.2602 29.1915 17.3542C29.2048 17.1288 29.2114 16.9048 29.214 16.6768C29.2153 16.6257 29.2153 16.5732 29.2153 16.5208C29.2114 14.4951 28.7933 12.5663 28.0353 10.8158ZM5.44778 26.736L5.43588 26.7412L0.00132421 29.4103V31.5959L5.42662 28.9307C5.44381 28.6792 5.46498 28.4276 5.49011 28.1708C5.49276 28.1262 5.49805 28.0804 5.50202 28.0358L5.50731 27.9808C5.54038 27.6349 5.58139 27.2837 5.62902 26.926C5.64225 26.8277 5.65548 26.7268 5.67003 26.6272L5.44778 26.736ZM7.03925 40.3475C6.98237 40.2151 6.92019 40.0644 6.85404 39.8928C6.34472 38.5759 5.5933 36.1191 5.40148 32.7136C5.38296 32.3913 5.36972 32.0624 5.36179 31.7243L0.353217 34.1812L0 34.3554V36.6118C0 37.187 0.111127 37.7347 0.31618 38.2379C0.968378 39.8561 2.56911 41 4.43972 41H7.33823V40.9869C7.31177 40.9358 7.19933 40.7209 7.03925 40.3475Z" fill="white"></path>
				</svg>